<svg xmlns="http://www.w3.org/2000/svg" xmlns:xlink="http://www.w3.org/1999/xlink" width="1000" height="318.19" viewBox="0 0 1000 318.19"><defs><style>.a{fill:#7451f7;}.b{fill:#0b1b38;}.c{fill:url(#a);}.d{fill:url(#b);}.e{fill:url(#c);}.f{fill:url(#d);}</style><linearGradient id="a" x1="-761.63" y1="459.76" x2="-761.63" y2="448.73" gradientTransform="translate(-593.94 579.11) rotate(180)" gradientUnits="userSpaceOnUse"><stop offset="0" stop-opacity="0.4"/><stop offset="0.63" stop-color="#1c2325" stop-opacity="0.1"/><stop offset="1" stop-opacity="0"/></linearGradient><linearGradient id="b" x1="-754.35" y1="352.25" x2="-754.35" y2="341.22" gradientTransform="translate(-593.94 579.11) rotate(180)" gradientUnits="userSpaceOnUse"><stop offset="0"/><stop offset="0.48" stop-color="#1c2325" stop-opacity="0.1"/><stop offset="1" stop-opacity="0"/></linearGradient><linearGradient id="c" x1="179.89" y1="350.08" x2="179.89" y2="339.05" gradientTransform="translate(2.27 -151.4)" xlink:href="#b"/><linearGradient id="d" x1="175.3" y1="277.06" x2="175.3" y2="266.03" gradientTransform="translate(14.12 -185.88)" gradientUnits="userSpaceOnUse"><stop offset="0" stop-opacity="0.4"/><stop offset="0.64" stop-color="#1c2325" stop-opacity="0.1"/><stop offset="1" stop-opacity="0"/></linearGradient></defs><path class="a" d="M349.34,214,233.77,2.1a4.53,4.53,0,0,0-7.65,0L177.77,90.68H195.2L230,27.05l97.13,178H132.82l46.51-85.26H161.9L110.55,214a4.36,4.36,0,0,0,3.83,6.44H345.52a4.36,4.36,0,0,0,3.82-6.45Z"/><path class="b" d="M239.25,99.76a4.33,4.33,0,0,0-3.75-2.13H4.36A4.32,4.32,0,0,0,.62,99.76a4.29,4.29,0,0,0-.08,4.31L116.1,315.92a4.36,4.36,0,0,0,7.65,0l48.31-88.58H154.63L119.93,291l-97.13-178H217.06L170.54,198.2H188l51.36-94.14A4.32,4.32,0,0,0,239.25,99.76Z"/><polygon class="b" points="510.96 168.23 487.54 97.31 461.11 97.31 437.71 168.23 416.1 97.63 381.97 97.63 423.57 220.28 450.3 220.28 474 151.56 497.71 220.28 524.44 220.28 566.03 97.63 532.55 97.63 510.96 168.23"/><polygon class="b" points="632.85 172.66 687.23 172.66 687.23 143.6 632.85 143.6 632.85 126.71 694.64 126.71 694.64 97.63 601.16 97.63 601.16 219.46 695.47 219.46 695.47 190.38 632.85 190.38 632.85 172.66"/><polygon class="b" points="847.02 97.63 810.27 97.63 787.66 132.31 765.2 97.63 727.63 97.63 768.4 157.55 725.94 219.46 762.71 219.46 786.97 182.59 811.09 219.46 848.67 219.46 806.24 157.23 847.02 97.63"/><path class="b" d="M935.63,95.65c-36.29,0-64.71,27.63-64.71,63.22s27.68,62.56,64.39,62.56c36.28,0,64.69-27.62,64.69-63.22S972.33,95.65,935.63,95.65ZM967,158.87c0,18.62-13.47,32.66-31.33,32.66-18,0-31.68-14.18-31.68-33.32,0-18.62,13.49-32.66,31.36-32.66,18,0,31.65,14.19,31.65,33Z"/><polygon class="c" points="161.91 119.84 156.05 130.57 173.47 130.57 179.33 119.84 161.91 119.84"/><polygon class="d" points="154.63 227.35 148.78 238.09 166.2 238.09 172.06 227.35 154.63 227.35"/><polygon class="e" points="187.94 198.19 193.8 187.45 176.37 187.45 170.52 198.19 187.94 198.19"/><polygon class="f" points="195.2 90.69 201.05 79.95 183.63 79.95 177.77 90.69 195.2 90.69"/></svg>